<svg xmlns="http://www.w3.org/2000/svg" width="256" height="256"><path fill="#1976D2" fill-opacity=".016" fill-rule="evenodd" d="M0 128.004v128.004l128.25-.254 128.25-.254.254-127.75L257.008 0H0zm.485.496c0 70.4.119 99.053.265 63.672s.146-92.98 0-128S.485 58.1.485 128.5"/><path fill="#1976D2" fill-opacity=".494" fill-rule="evenodd" d="M47.957 1.834c-1.724 1.396-2.376 3.174-2.73 7.444l-.465 5.61-20.471.306c-20.135.301-20.503.345-22.381 2.667C.058 20.149 0 23.298 0 120.936v100.715l2.314 2.175L4.629 226h126.487l8.692 8.75c14.323 14.419 26.838 20.234 45.192 20.998 13.369.556 22.515-1.314 33.93-6.938 12.113-5.968 23.919-17.78 29.897-29.914 2.331-4.732 4.856-11.482 5.609-15l1.37-6.396.382 12c.21 6.6.37-33.675.356-89.5l-.026-101.5-.509 80.5c-.28 44.275-.859 78.25-1.287 75.5-.985-6.332-5.331-16.565-10.059-23.689L241 145.293V82.757c0-60.06-.076-62.629-1.91-64.896-1.878-2.322-2.246-2.366-22.381-2.667l-20.471-.306-.465-5.61C195.247 2.934 192.789 0 188 0c-4.804 0-7.247 2.931-7.778 9.334l-.47 5.666h-28.504l-.47-5.666C150.247 2.931 147.804 0 143 0s-7.247 2.931-7.778 9.334l-.47 5.666h-28.504l-.47-5.666C105.247 2.931 102.804 0 98 0s-7.247 2.931-7.778 9.334L89.752 15H61.248l-.47-5.666C60.247 2.931 57.804 0 53 0c-1.528 0-3.798.825-5.043 1.834M.481 121c0 55.825.121 78.662.269 50.75.147-27.913.147-73.588 0-101.5C.602 42.337.481 65.175.481 121M15 45.5V60h211V31h-30v4.577c0 3.725-.544 5.121-2.923 7.5-3.697 3.697-6.457 3.697-10.154 0-2.379-2.379-2.923-3.775-2.923-7.5V31h-29v4.577c0 3.725-.544 5.121-2.923 7.5-3.697 3.697-6.457 3.697-10.154 0-2.379-2.379-2.923-3.775-2.923-7.5V31h-29v4.577c0 3.725-.544 5.121-2.923 7.5-3.697 3.697-6.457 3.697-10.154 0-2.379-2.379-2.923-3.775-2.923-7.5V31H61v4.577c0 3.725-.544 5.121-2.923 7.5-3.697 3.697-6.457 3.697-10.154 0-2.379-2.379-2.923-3.775-2.923-7.5V31H15zm0 98V211h54.5c39.959 0 54.5-.303 54.5-1.134 0-.624-.43-2.761-.955-4.75s-1.208-4.853-1.519-6.366c-.53-2.584-.885-2.75-5.871-2.75-6.26 0-9.655-2.686-9.655-7.64 0-4.699 3.541-7.36 9.795-7.36 4.833 0 5.203-.178 5.731-2.75.311-1.512.994-4.377 1.519-6.366 1.545-5.85 1.51-5.884-5.871-5.884-5.842 0-7.139-.334-9-2.314-2.888-3.075-2.826-7.725.14-10.512 2.063-1.938 3.419-2.174 12.483-2.174h10.168l9.267-9.304c7.594-7.624 10.803-10.056 17.768-13.466 10.613-5.197 19.01-7.196 30.303-7.215 11.263-.019 20.475 2.101 30.066 6.919l7.631 3.834V76H15zm32.911-50.629C46.238 94.225 45.6 95.78 45.6 98.5c0 6.198 2.587 7.5 14.9 7.5s14.9-1.302 14.9-7.5S72.813 91 60.5 91c-8.553 0-10.666.314-12.589 1.871m60.263.443c-2.888 3.075-2.826 7.725.14 10.512 2.074 1.947 3.41 2.174 12.826 2.174 9.694 0 10.68-.18 12.686-2.314 2.888-3.075 2.826-7.725-.14-10.512-2.074-1.947-3.41-2.174-12.826-2.174-9.694 0-10.68.18-12.686 2.314m60 0c-2.888 3.075-2.826 7.725.14 10.512 2.074 1.947 3.41 2.174 12.826 2.174 9.694 0 10.68-.18 12.686-2.314 2.888-3.075 2.826-7.725-.14-10.512-2.074-1.947-3.41-2.174-12.826-2.174-9.694 0-10.68.18-12.686 2.314M47.911 122.871c-3.211 2.6-3.211 8.658 0 11.258C49.834 135.686 51.947 136 60.5 136c12.313 0 14.9-1.302 14.9-7.5s-2.587-7.5-14.9-7.5c-8.553 0-10.666.314-12.589 1.871m60.263.443c-2.888 3.075-2.826 7.725.14 10.512 2.074 1.947 3.41 2.174 12.826 2.174 9.694 0 10.68-.18 12.686-2.314 2.888-3.075 2.826-7.725-.14-10.512-2.074-1.947-3.41-2.174-12.826-2.174-9.694 0-10.68.18-12.686 2.314m71.007 13.805c-15.2 2.528-31.035 14.791-37.684 29.181-4.531 9.806-6.056 19.579-4.591 29.424 4.22 28.375 31.248 48.664 59.076 44.347 28.264-4.386 48.389-31.34 44.089-59.053-3.43-22.103-21.423-40.436-43.148-43.961-7.337-1.19-10.278-1.18-17.742.062m-131.27 15.752c-1.673 1.354-2.311 2.909-2.311 5.629 0 6.198 2.587 7.5 14.9 7.5s14.9-1.302 14.9-7.5-2.587-7.5-14.9-7.5c-8.553 0-10.666.314-12.589 1.871m135.263.443c-2.066 2.2-2.174 3.21-2.174 20.326 0 23.927-1.587 22.36 22.64 22.36 17.534 0 18.069-.061 20.186-2.314 2.888-3.075 2.826-7.725-.14-10.512-2.126-1.996-3.352-2.174-15-2.174H196v-12.826c0-12.113-.129-12.946-2.314-15-3.075-2.888-7.725-2.826-10.512.14M47.911 182.871c-1.673 1.354-2.311 2.909-2.311 5.629 0 6.198 2.587 7.5 14.9 7.5s14.9-1.302 14.9-7.5-2.587-7.5-14.9-7.5c-8.553 0-10.666.314-12.589 1.871"/><path fill="#1976D2" fill-opacity=".724" fill-rule="evenodd" d="M48.684 2.034c-2.155 1.695-2.636 2.988-2.885 7.75L45.5 15.5l-20.693.27-20.693.27-2.057 2.615C.012 21.254 0 21.865 0 121.18v99.911l2.455 2.454L4.909 226h127.617l4.219 5.402c7.761 9.937 22.832 19.379 36.255 22.715 3.113.773 10.275 1.333 16.5 1.289 12.805-.089 22.578-2.758 33.43-9.13 8.225-4.83 18.516-15.121 23.346-23.346 3.774-6.429 8.545-19.644 8.927-24.732.111-1.484.47 2.927.797 9.802s.577-32.725.556-88l-.038-100.5L256 101c-.285 44.825-.626 80.085-.759 78.355-.584-7.619-5.765-20.841-11.378-29.035L241 146.14V83.705c0-61.495-.031-62.475-2.057-65.05l-2.057-2.615-20.693-.27-20.693-.27-.299-5.716c-.249-4.762-.73-6.055-2.885-7.75-3.263-2.567-5.369-2.567-8.632 0-2.155 1.695-2.636 2.988-2.885 7.75L180.5 15.5h-30l-.299-5.716c-.249-4.762-.73-6.055-2.885-7.75-3.263-2.567-5.369-2.567-8.632 0-2.155 1.695-2.636 2.988-2.885 7.75L135.5 15.5h-30l-.299-5.716c-.249-4.762-.73-6.055-2.885-7.75-3.263-2.567-5.369-2.567-8.632 0-2.155 1.695-2.636 2.988-2.885 7.75L90.5 15.5h-30l-.299-5.716c-.249-4.762-.73-6.055-2.885-7.75C55.894.915 53.952 0 53 0s-2.894.915-4.316 2.034M.481 121c0 55.275.121 77.887.269 50.25.148-27.638.148-72.863 0-100.5C.602 43.112.481 65.725.481 121M15 45.474V61h211V29.948l-15.25.276-15.25.276-.52 5.845C194.409 42.77 192.61 45 188 45s-6.409-2.23-6.98-8.655l-.52-5.845h-30l-.52 5.845C149.409 42.77 147.61 45 143 45s-6.409-2.23-6.98-8.655l-.52-5.845h-30l-.52 5.845C104.409 42.77 102.61 45 98 45s-6.409-2.23-6.98-8.655L90.5 30.5h-30l-.52 5.845C59.409 42.77 57.61 45 53 45s-6.409-2.23-6.98-8.655L45.5 30.5l-15.25-.276L15 29.948zM15 143v68h55.107c52.086 0 55.068-.096 54.398-1.75-.39-.963-1.216-4.338-1.836-7.5l-1.127-5.75h-5.316c-4.312 0-5.781-.464-7.771-2.455-3.129-3.128-3.129-6.962 0-10.09 1.99-1.991 3.459-2.455 7.771-2.455h5.316l1.127-5.75c.62-3.162 1.446-6.537 1.836-7.5.636-1.57-.028-1.75-6.443-1.75-6.261 0-7.459-.306-9.607-2.455-3.148-3.147-3.127-6.964.055-10.146 2.392-2.392 3.007-2.501 13.117-2.328l10.608.182 4.417-5.567c8.055-10.155 22.904-19.468 36.348-22.798 3.025-.75 10.225-1.352 16-1.338 11.51.027 20.99 2.295 30.475 7.291 2.764 1.456 5.362 2.8 5.775 2.987.412.186.75-12.524.75-28.245V75H15zm33.635-49.927c-3.644 2.866-3.644 7.988 0 10.854C50.868 105.684 52.676 106 60.5 106c11.062 0 14.5-1.778 14.5-7.5S71.562 91 60.5 91c-7.824 0-9.632.316-11.865 2.073m59.82.382c-1.35 1.35-2.455 3.62-2.455 5.045s1.105 3.695 2.455 5.045C110.736 105.827 111.62 106 121 106s10.264-.173 12.545-2.455c3.129-3.128 3.129-6.962 0-10.09C131.264 91.173 130.38 91 121 91s-10.264.173-12.545 2.455m60 0c-1.35 1.35-2.455 3.62-2.455 5.045s1.105 3.695 2.455 5.045C170.736 105.827 171.62 106 181 106s10.264-.173 12.545-2.455c3.129-3.128 3.129-6.962 0-10.09C191.264 91.173 190.38 91 181 91s-10.264.173-12.545 2.455m-119.82 29.618c-3.644 2.866-3.644 7.988 0 10.854C50.868 135.684 52.676 136 60.5 136c11.062 0 14.5-1.778 14.5-7.5s-3.438-7.5-14.5-7.5c-7.824 0-9.632.316-11.865 2.073m59.82.382c-1.35 1.35-2.455 3.62-2.455 5.045s1.105 3.695 2.455 5.045C110.736 135.827 111.62 136 121 136s10.264-.173 12.545-2.455c3.129-3.128 3.129-6.962 0-10.09C131.264 121.173 130.38 121 121 121s-10.264.173-12.545 2.455m67.179 14.131c-18.147 4.393-33.777 20.192-38.094 38.507-9.028 38.301 25.066 72.395 63.367 63.367 18.56-4.375 34.178-19.993 38.553-38.553 9.06-38.433-25.401-72.621-63.826-63.321M48.635 153.073c-3.644 2.866-3.644 7.988 0 10.854C50.868 165.684 52.676 166 60.5 166c11.062 0 14.5-1.778 14.5-7.5s-3.438-7.5-14.5-7.5c-7.824 0-9.632.316-11.865 2.073m134.82.382c-2.42 2.42-2.455 2.702-2.455 20.045 0 23.809-1.309 22.5 22.5 22.5 17.343 0 17.625-.035 20.045-2.455 1.35-1.35 2.455-3.62 2.455-5.045s-1.105-3.695-2.455-5.045c-2.345-2.346-3.013-2.455-15-2.455H196v-12.545c0-11.987-.109-12.655-2.455-15-1.35-1.35-3.62-2.455-5.045-2.455s-3.695 1.105-5.045 2.455m-134.82 29.618c-3.644 2.866-3.644 7.988 0 10.854C50.868 195.684 52.676 196 60.5 196c11.062 0 14.5-1.778 14.5-7.5s-3.438-7.5-14.5-7.5c-7.824 0-9.632.316-11.865 2.073"/><path fill="#1976D2" fill-opacity=".943" fill-rule="evenodd" d="M50.315 1.016C47.233 2.245 46 5.08 46 10.934V16H25.611c-18.585 0-20.598.169-22.75 1.911L.5 19.823l-.266 99.338c-.19 71.09.05 100.103.844 102.024.646 1.562 2.389 3.131 4.166 3.75 2.033.709 23.735 1.065 64.898 1.065h61.844l8.757 8.793c13.995 14.054 28.714 20.431 47.257 20.477 11.688.028 18.877-1.645 30-6.982 7.883-3.783 10.881-5.94 17.615-12.673 6.74-6.741 8.885-9.724 12.665-17.615 4.452-9.291 6.51-16.363 6.928-23.799.114-2.036.471 2.824.792 10.799s.569-30.275.551-85l-.034-99.5-.517 83c-.285 45.65-.626 81.229-.759 79.064-.585-9.547-5.73-23.745-11.618-32.064-2.097-2.964-2.129-3.774-2.623-66.839l-.5-63.839-2.361-1.911c-2.151-1.742-4.167-1.911-22.75-1.911H195v-5.389c0-6.784-2.225-9.944-7-9.944s-7 3.16-7 9.944V16h-31v-5.389c0-6.784-2.225-9.944-7-9.944s-7 3.16-7 9.944V16h-31v-5.389c0-6.784-2.225-9.944-7-9.944s-7 3.16-7 9.944V16H60v-5.389c0-7.716-4.131-11.809-9.685-9.595M.481 121c0 54.725.121 77.112.269 49.75.148-27.363.148-72.138 0-99.5C.602 43.887.481 66.275.481 121M15 45.5V61h211V30h-31v5.326c0 4.274-.457 5.755-2.314 7.5C187.26 47.923 181 43.83 181 35.186V30h-31v5.326c0 4.274-.457 5.755-2.314 7.5C142.26 47.923 136 43.83 136 35.186V30h-31v5.326c0 4.274-.457 5.755-2.314 7.5C97.26 47.923 91 43.83 91 35.186V30H60v5.326c0 4.274-.457 5.755-2.314 7.5C52.26 47.923 46 43.83 46 35.186V30H15zm0 97.5v68h110.233l-.645-2.25c-.355-1.238-1.144-4.612-1.755-7.5-1.097-5.191-1.151-5.25-4.822-5.25-5.742 0-9.744-1.789-10.785-4.823-2.097-6.105 2.218-10.177 10.785-10.177 3.671 0 3.725-.059 4.822-5.25.611-2.887 1.4-6.262 1.755-7.5.613-2.138.372-2.25-4.822-2.25-10.335 0-14.777-3.609-12.548-10.194 1.304-3.856 6.16-5.176 16.803-4.569 8.63.492 8.719.473 10.308-2.217.882-1.493 4.669-5.606 8.415-9.14 20.25-19.103 49.855-23.654 74.708-11.486l8.548 4.185V75H15zm35.017-50.763c-5.364 2.82-4.923 10.697.721 12.864 1.519.583 6.74.912 11.601.73 7.871-.295 9.048-.59 10.75-2.692 2.431-3.003 2.431-6.275 0-9.278-1.724-2.131-2.82-2.389-11.25-2.645-6.251-.19-10.16.147-11.822 1.021m60.811-.101c-5.614 2.056-5.356 10.787.379 12.786 3.985 1.39 15.601 1.39 19.586 0 5.99-2.088 5.98-10.76-.015-12.849-3.767-1.314-16.299-1.274-19.95.063m60 0c-5.614 2.056-5.356 10.787.379 12.786 3.985 1.39 15.601 1.39 19.586 0 5.99-2.088 5.98-10.76-.015-12.849-3.767-1.314-16.299-1.274-19.95.063M50.017 122.237c-5.364 2.82-4.923 10.697.721 12.864 1.519.583 6.74.912 11.601.73 7.871-.295 9.048-.59 10.75-2.692 2.431-3.003 2.431-6.275 0-9.278-1.724-2.131-2.82-2.389-11.25-2.645-6.251-.19-10.16.147-11.822 1.021m60.811-.101c-3.239 1.186-4.884 5.295-3.618 9.036 1.161 3.429 5.156 4.828 13.79 4.828 3.686 0 8.093-.485 9.793-1.078 5.99-2.088 5.98-10.76-.015-12.849-3.767-1.314-16.299-1.274-19.95.063m63.86 15.366c-8.597 2.363-15.979 6.804-23.268 13.998-10.728 10.588-15.396 21.807-15.396 37s4.668 26.412 15.396 37c10.984 10.841 22.09 15.476 37.08 15.476s26.096-4.635 37.08-15.476c10.728-10.588 15.396-21.807 15.396-37s-4.668-26.412-15.396-37c-11.156-11.011-22.207-15.539-37.58-15.399-4.675.043-10.666.673-13.312 1.401M50.017 152.237c-5.364 2.82-4.923 10.697.721 12.864 1.519.583 6.74.912 11.601.73 7.871-.295 9.048-.59 10.75-2.692 2.431-3.003 2.431-6.275 0-9.278-1.724-2.131-2.82-2.389-11.25-2.645-6.251-.19-10.16.147-11.822 1.021m135.811-.027c-1.669.565-3.077 2.065-3.75 3.997-1.397 4.006-1.401 30.569-.005 34.571C183.6 195.16 187.048 196 203.5 196c7.811 0 15.586-.483 17.278-1.073 5.995-2.089 6.005-10.761.015-12.849-1.7-.593-7.974-1.078-13.942-1.078H196v-10.851c0-5.968-.483-12.235-1.073-13.927-1.272-3.65-5.136-5.353-9.099-4.012M50.017 182.237c-5.364 2.82-4.923 10.697.721 12.864 1.519.583 6.74.912 11.601.73 7.871-.295 9.048-.59 10.75-2.692 2.431-3.003 2.431-6.275 0-9.278-1.724-2.131-2.82-2.389-11.25-2.645-6.251-.19-10.16.147-11.822 1.021"/></svg>